<?xml version="1.0" encoding="UTF-8"?>
<svg version="1.1" xmlns="http://www.w3.org/2000/svg" width="413" height="374" viewBox="302 325 413 374">
<defs>
  <mask id="triangle-cutout">
    <rect width="1024" height="1024" fill="white"/>
    <path d="M0 0 C2.96110146 2.73939653 4.87531682 5.25563807 6.66625977 8.86254883 C7.15099258 9.8290889 7.6357254 10.79562897 8.13514709 11.79145813 C8.64871262 12.83609726 9.16227814 13.88073639 9.69140625 14.95703125 C10.23675522 16.0510173 10.78210419 17.14500336 11.34397888 18.2721405 C13.09099917 21.7819172 14.826672 25.29717689 16.5625 28.8125 C17.70308109 31.10516357 18.84435061 33.39748479 19.98632812 35.68945312 C26.78091754 49.35286912 33.43964169 63.07746377 39.97642517 76.86601257 C40.66033746 78.29185873 41.37983109 79.70116092 42.1330719 81.09162903 C43 83 43 83 43 86 C14.62 86 -13.76 86 -43 86 C-41.59808792 81.79426376 -40.26941124 78.29126427 -38.3125 74.39453125 C-37.52020996 72.81188477 -37.52020996 72.81188477 -36.71191406 71.19726562 C-35.8645166 69.52180664 -35.8645166 69.52180664 -35 67.8125 C-34.41186523 66.64267578 -33.82373047 65.47285156 -33.21777344 64.26757812 C-29.5971187 57.08927079 -25.89688838 49.95943895 -22.11157227 42.86694336 C-16.7506401 32.75053637 -11.71039766 22.46723812 -6.62402344 12.2109375 C-6.26025101 11.4791629 -5.89647858 10.74738831 -5.52168274 9.99343872 C-4.82932671 8.60048969 -4.13866002 7.20669941 -3.44987488 5.8119812 C-1.11249985 1.11249985 -1.11249985 1.11249985 0 0 Z" fill="black" transform="translate(515,461)"/>
  </mask>
</defs>
<g mask="url(#triangle-cutout)">
<path d="M0 0 C2.70715008 2.41548749 4.21429696 4.97261957 5.8984375 8.171875 C6.45321777 9.21641846 7.00799805 10.26096191 7.57958984 11.3371582 C8.1720752 12.463396 8.76456055 13.58963379 9.375 14.75 C10.64207648 17.13612459 11.91420145 19.51953453 13.1875 21.90234375 C13.66973526 22.80577766 13.66973526 22.80577766 14.16171265 23.72746277 C17.14695469 29.30539972 20.24277115 34.81614912 23.375 40.3125 C28.31044979 48.98786999 33.18042757 57.69737093 38 66.4375 C38.33797607 67.05038879 38.67595215 67.66327759 39.02416992 68.29473877 C44.22546629 77.73289597 49.37082831 87.20060444 54.49267578 96.68212891 C58.78009899 104.61286166 63.14019923 112.50055534 67.53515625 120.37207031 C69.29818312 123.53494052 71.0556288 126.70089579 72.8125 129.8671875 C73.48974383 131.08748498 74.16698994 132.3077812 74.84423828 133.52807617 C75.84974289 135.33989073 76.85516889 137.15174859 77.86029053 138.96377563 C81.20650641 144.99554969 84.55722337 151.02271696 88 157 C92.34750022 155.5587522 95.23000036 153.34665726 98.6875 150.375 C103.78706625 146 103.78706625 146 106 146 C106.27336182 146.65629395 106.54672363 147.31258789 106.82836914 147.98876953 C114.5075227 166.40444551 122.29794747 184.77173357 130.125 203.125 C138.19203508 222.04135029 146.22522835 240.97138982 154.21289062 259.92138672 C157.91431106 268.70102547 161.62315535 277.47729205 165.359375 286.2421875 C165.71437576 287.07503769 166.06937653 287.90788788 166.43513489 288.76597595 C166.78823227 289.59432449 167.14132965 290.42267303 167.50512695 291.27612305 C174.13983709 306.84121505 180.70690265 322.43255165 187.1875 338.0625 C187.54007874 338.91227417 187.89265747 339.76204834 188.25592041 340.63757324 C190.515617 346.08695273 192.76432924 351.5407196 195 357 C195.45466644 358.10876495 195.45466644 358.10876495 195.91851807 359.2399292 C196.77938368 361.34444244 197.63489219 363.45103935 198.48828125 365.55859375 C199.21785034 367.35574829 199.21785034 367.35574829 199.9621582 369.18920898 C201 372 201 372 201 374 C172.62 374 144.24 374 115 374 C113.02 369.05 113.02 369.05 111 364 C109.76886245 361.28591606 108.5231284 358.59201532 107.234375 355.90625 C106.88361908 355.16859909 106.53286316 354.43094818 106.17147827 353.67094421 C105.42166323 352.09488446 104.67048428 350.51947295 103.91802979 348.94467163 C102.32143014 345.60300868 100.73173087 342.25807781 99.14151001 338.91337585 C98.32071385 337.18722649 97.49956504 335.46124476 96.67807007 333.73542786 C92.81895953 325.62715937 88.98312634 317.50803336 85.15881348 309.38330078 C84.14946437 307.23946188 83.1387349 305.09627765 82.12792969 302.953125 C73 283.58040149 73 283.58040149 73 281 C25.15 281.33 -22.7 281.66 -72 282 C-90.6774437 320.14359397 -90.6774437 320.14359397 -109.21508789 358.35424805 C-111.77651226 363.58605629 -114.39490068 368.78980136 -117 374 C-148.35 374 -179.7 374 -212 374 C-211.24036689 370.20183446 -210.60315585 367.79618167 -209.0234375 364.421875 C-208.60835938 363.52678223 -208.19328125 362.63168945 -207.765625 361.70947266 C-207.30671875 360.73284668 -206.8478125 359.7562207 -206.375 358.75 C-205.36131396 356.56541271 -204.34833042 354.38049935 -203.3359375 352.1953125 C-202.79291992 351.02645508 -202.24990234 349.85759766 -201.69042969 348.65332031 C-198.75768186 342.32699462 -195.88198349 335.9745622 -193 329.625 C-192.37021751 328.23835403 -191.74041576 326.8517168 -191.1105957 325.46508789 C-189.43197979 321.7686807 -187.75446363 318.07177546 -186.07733154 314.37469482 C-184.96212396 311.9165122 -183.84654278 309.45849931 -182.73095703 307.00048828 C-180.33950381 301.73038306 -177.95033683 296.45924469 -175.5625 291.1875 C-175.16009094 290.29925537 -174.75768188 289.41101074 -174.34307861 288.49584961 C-170.13774537 279.2092211 -165.94850335 269.91625305 -161.83203125 260.58984375 C-161.50136658 259.84075745 -161.1707019 259.09167114 -160.83001709 258.31988525 C-160.17123822 256.82721216 -159.51246538 255.3345364 -158.85369873 253.84185791 C-152.54707313 239.55667247 -146.00227416 225.40247615 -139.29125977 211.30297852 C-134.52024655 201.27145807 -129.87682314 191.18959664 -125.3125 181.0625 C-119.97406272 169.21893891 -114.43241905 157.4913336 -108.73266602 145.81762695 C-105.00299041 138.15788333 -101.48477155 130.45279706 -98.234375 122.578125 C-97 120 -97 120 -95 119 C-94.55011719 119.40089844 -94.10023438 119.80179687 -93.63671875 120.21484375 C-87.88337427 125.29946282 -81.964003 130.16521081 -76 135 C-75.60518433 133.9488501 -75.60518433 133.9488501 -75.20239258 132.87646484 C-73.9070449 129.77762499 -72.38857113 126.91502628 -70.76171875 123.9765625 C-70.44495682 123.40279373 -70.12819489 122.82902496 -69.80183411 122.23786926 C-68.76676837 120.36520824 -67.72731756 118.4950261 -66.6875 116.625 C-65.95951758 115.31134459 -65.23165439 113.9976231 -64.50390625 112.68383789 C-58.07143815 101.08357496 -51.5651998 89.52565631 -45 78 C-44.38157227 76.91396484 -43.76314453 75.82792969 -43.12597656 74.70898438 C-35.25676888 60.89772191 -27.34619583 47.11086567 -19.39233398 33.34814453 C-14.79159493 25.38435688 -10.22152803 17.40346941 -5.67871094 9.40649414 C-5.22141602 8.60332764 -4.76412109 7.80016113 -4.29296875 6.97265625 C-3.8961792 6.27406494 -3.49938965 5.57547363 -3.09057617 4.85571289 C-2.11847716 3.20159949 -1.06425382 1.59638073 0 0 Z " fill="#243F5B" transform="translate(514,325)"/>
<path d="M0 0 C2.70715008 2.41548749 4.21429696 4.97261957 5.8984375 8.171875 C6.45321777 9.21641846 7.00799805 10.26096191 7.57958984 11.3371582 C8.1720752 12.463396 8.76456055 13.58963379 9.375 14.75 C10.64207648 17.13612459 11.91420145 19.51953453 13.1875 21.90234375 C13.66973526 22.80577766 13.66973526 22.80577766 14.16171265 23.72746277 C17.14695469 29.30539972 20.24277115 34.81614912 23.375 40.3125 C28.31044979 48.98786999 33.18042757 57.69737093 38 66.4375 C38.33797607 67.05038879 38.67595215 67.66327759 39.02416992 68.29473877 C44.22546629 77.73289597 49.37082831 87.20060444 54.49267578 96.68212891 C58.78009899 104.61286166 63.14019923 112.50055534 67.53515625 120.37207031 C69.29818312 123.53494052 71.0556288 126.70089579 72.8125 129.8671875 C73.48974383 131.08748498 74.16698994 132.3077812 74.84423828 133.52807617 C75.84974289 135.33989073 76.85516889 137.15174859 77.86029053 138.96377563 C81.20650641 144.99554969 84.55722337 151.02271696 88 157 C92.34750022 155.5587522 95.23000036 153.34665726 98.6875 150.375 C103.78706625 146 103.78706625 146 106 146 C106.27336182 146.65629395 106.54672363 147.31258789 106.82836914 147.98876953 C114.5075227 166.40444551 122.29794747 184.77173357 130.125 203.125 C138.19203508 222.04135029 146.22522835 240.97138982 154.21289062 259.92138672 C157.91431106 268.70102547 161.62315535 277.47729205 165.359375 286.2421875 C165.71437576 287.07503769 166.06937653 287.90788788 166.43513489 288.76597595 C166.78823227 289.59432449 167.14132965 290.42267303 167.50512695 291.27612305 C174.13983709 306.84121505 180.70690265 322.43255165 187.1875 338.0625 C187.54007874 338.91227417 187.89265747 339.76204834 188.25592041 340.63757324 C190.515617 346.08695273 192.76432924 351.5407196 195 357 C195.45466644 358.10876495 195.45466644 358.10876495 195.91851807 359.2399292 C196.77938368 361.34444244 197.63489219 363.45103935 198.48828125 365.55859375 C199.21785034 367.35574829 199.21785034 367.35574829 199.9621582 369.18920898 C201 372 201 372 201 374 C172.62 374 144.24 374 115 374 C113 369 111 364 109 359 C132.1 359 155.2 359 179 359 C175.7 351.74 172.4 344.48 169 337 C164.73791047 326.44625449 164.73791047 326.44625449 163.125 322.32421875 C155.63352892 303.3910325 147.39501029 284.72295608 139.28515625 266.046875 C136.93177224 260.60953993 134.65634118 255.16791937 132.5625 249.625 C130.5231291 244.24906341 128.27741914 238.98562784 125.94433594 233.73291016 C122.68074773 226.35231414 119.61233909 218.89135639 116.55200195 211.42456055 C112.01879084 199.67452961 112.01879084 199.67452961 104 190.25 C99.03293413 186.04010881 99.03293413 186.04010881 97.23828125 183.85449219 C95.0960178 181.70638438 95.0960178 181.70638438 91.984375 181.828125 C90.91703125 181.96734375 89.8496875 182.1065625 88.75 182.25 C87.67234375 182.37890625 86.5946875 182.5078125 85.484375 182.640625 C84.66453125 182.75921875 83.8446875 182.8778125 83 183 C82.5781543 182.17612793 82.15630859 181.35225586 81.72167969 180.50341797 C73.03055103 163.54793609 64.26569485 146.65109851 55 130 C54.56010742 129.20948242 54.12021484 128.41896484 53.66699219 127.60449219 C51.13179426 123.05789755 48.58568765 118.51809116 46 114 C45.52691406 113.10925781 45.05382812 112.21851563 44.56640625 111.30078125 C42.70059219 108.56022145 40.74384268 107.09556085 38 105.25 C37.13375 104.65703125 36.2675 104.0640625 35.375 103.453125 C32.99066009 101.87167675 32.99066009 101.87167675 30 101 C29.84144531 101.72960937 29.68289063 102.45921875 29.51953125 103.2109375 C27.35282364 112.90725333 24.71325044 122.44463975 22 132 C18.63335425 130.87778475 18.18743263 130.25417936 16.21484375 127.45703125 C15.68866455 126.71888184 15.16248535 125.98073242 14.62036133 125.22021484 C14.06501709 124.42566895 13.50967285 123.63112305 12.9375 122.8125 C12.07838013 121.6052124 12.07838013 121.6052124 11.2019043 120.37353516 C8.44431639 116.49413213 5.71605651 112.59452237 2.9921875 108.69140625 C2.537229 108.04389404 2.08227051 107.39638184 1.61352539 106.72924805 C0.75986146 105.51258872 -0.08754324 104.29150847 -0.92797852 103.06567383 C-1.90265771 101.67455023 -2.94490992 100.33116841 -4 99 C-4.66 99 -5.32 99 -6 99 C-7.54598513 100.72521434 -7.54598513 100.72521434 -9.1171875 102.98046875 C-10.02791016 104.2324707 -10.02791016 104.2324707 -10.95703125 105.50976562 C-11.58996094 106.39341797 -12.22289062 107.27707031 -12.875 108.1875 C-21.81062708 120.54077414 -21.81062708 120.54077414 -24 123 C-24.66 123 -25.32 123 -26 123 C-26.81520635 120.27161565 -27.62724843 117.54235583 -28.4375 114.8125 C-28.66759766 114.04357422 -28.89769531 113.27464844 -29.13476562 112.48242188 C-30.26235986 108.67474859 -31.3168177 104.91848238 -32 101 C-36.20128793 103.76759468 -36.20128793 103.76759468 -40.25 106.75 C-42 108 -42 108 -44 108 C-44.26103516 108.70092773 -44.52207031 109.40185547 -44.79101562 110.12402344 C-46.10225908 113.24325767 -47.65928365 116.08101146 -49.34375 119.015625 C-49.66912247 119.58428284 -49.99449493 120.15294067 -50.32972717 120.73883057 C-51.38320817 122.57778957 -52.44144528 124.41395766 -53.5 126.25 C-54.22926068 127.5200816 -54.95834507 128.79026444 -55.68725586 130.06054688 C-60.71510111 138.81274532 -65.79929913 147.53084315 -70.94482422 156.21435547 C-73.65241603 160.79633754 -76.32328044 165.39994222 -79 170 C-82.15330554 169.39305845 -84.18888867 168.3583335 -86.75 166.4375 C-87.36359375 165.98246094 -87.9771875 165.52742187 -88.609375 165.05859375 C-89.29773438 164.53458984 -89.29773438 164.53458984 -90 164 C-92.62509344 166.61553026 -95.2389787 169.23958891 -97.82421875 171.89453125 C-98.7786209 172.86721196 -99.73304812 173.83986808 -100.6875 174.8125 C-101.17283203 175.31458984 -101.65816406 175.81667969 -102.15820312 176.33398438 C-103.40124606 177.59417273 -104.69699892 178.80191044 -106 180 C-106.66 180 -107.32 180 -108 180 C-108.27996826 180.70938721 -108.55993652 181.41877441 -108.84838867 182.1496582 C-110.89273148 187.20959085 -113.11869544 192.19098629 -115.3125 197.1875 C-115.78623047 198.27353516 -116.25996094 199.35957031 -116.74804688 200.47851562 C-119.24082128 206.15631231 -121.84159742 211.73920431 -124.64868164 217.26733398 C-127.60733661 223.25039181 -130.31134041 229.35696004 -133.0625 235.4375 C-133.7266839 236.90195561 -134.39090978 238.36639218 -135.05517578 239.83081055 C-140.19281809 251.16854914 -145.26027818 262.53671089 -150.30078125 273.91796875 C-152.69894995 279.33054337 -155.12482136 284.73012849 -157.5625 290.125 C-161.47745222 298.79171543 -165.30208879 307.49708847 -169.12084961 316.20654297 C-171.4071121 321.41187634 -173.71420842 326.60119029 -176.125 331.75 C-180.26575393 340.75163897 -184.09691076 349.89279178 -188 359 C-162.26 359 -136.52 359 -110 359 C-116 373 -116 373 -117 374 C-119.95246354 374.09526806 -122.88148421 374.12552452 -125.83422852 374.11352539 C-126.76096375 374.11367142 -127.68769897 374.11381744 -128.64251709 374.1139679 C-131.72133687 374.11326838 -134.80009697 374.10547421 -137.87890625 374.09765625 C-140.00740018 374.09579221 -142.13589453 374.09436824 -144.26438904 374.09336853 C-149.8786232 374.08954228 -155.49283168 374.07971108 -161.10705566 374.06866455 C-166.83113253 374.05845273 -172.55521353 374.0538714 -178.27929688 374.04882812 C-189.51954256 374.03808891 -200.75976915 374.0210112 -212 374 C-211.34684781 370.5341829 -210.52076447 367.6201922 -209.0234375 364.421875 C-208.60835938 363.52678223 -208.19328125 362.63168945 -207.765625 361.70947266 C-207.30671875 360.73284668 -206.8478125 359.7562207 -206.375 358.75 C-205.36131396 356.56541271 -204.34833042 354.38049935 -203.3359375 352.1953125 C-202.79291992 351.02645508 -202.24990234 349.85759766 -201.69042969 348.65332031 C-198.75768186 342.32699462 -195.88198349 335.9745622 -193 329.625 C-192.37021751 328.23835403 -191.74041576 326.8517168 -191.1105957 325.46508789 C-189.43197979 321.7686807 -187.75446363 318.07177546 -186.07733154 314.37469482 C-184.96212396 311.9165122 -183.84654278 309.45849931 -182.73095703 307.00048828 C-180.33950381 301.73038306 -177.95033683 296.45924469 -175.5625 291.1875 C-175.16009094 290.29925537 -174.75768188 289.41101074 -174.34307861 288.49584961 C-170.13774537 279.2092211 -165.94850335 269.91625305 -161.83203125 260.58984375 C-161.50136658 259.84075745 -161.1707019 259.09167114 -160.83001709 258.31988525 C-160.17123822 256.82721216 -159.51246538 255.3345364 -158.85369873 253.84185791 C-152.54707313 239.55667247 -146.00227416 225.40247615 -139.29125977 211.30297852 C-134.52024655 201.27145807 -129.87682314 191.18959664 -125.3125 181.0625 C-119.97406272 169.21893891 -114.43241905 157.4913336 -108.73266602 145.81762695 C-105.00299041 138.15788333 -101.48477155 130.45279706 -98.234375 122.578125 C-97 120 -97 120 -95 119 C-94.55011719 119.40089844 -94.10023438 119.80179687 -93.63671875 120.21484375 C-87.88337427 125.29946282 -81.964003 130.16521081 -76 135 C-75.60518433 133.9488501 -75.60518433 133.9488501 -75.20239258 132.87646484 C-73.9070449 129.77762499 -72.38857113 126.91502628 -70.76171875 123.9765625 C-70.44495682 123.40279373 -70.12819489 122.82902496 -69.80183411 122.23786926 C-68.76676837 120.36520824 -67.72731756 118.4950261 -66.6875 116.625 C-65.95951758 115.31134459 -65.23165439 113.9976231 -64.50390625 112.68383789 C-58.07143815 101.08357496 -51.5651998 89.52565631 -45 78 C-44.38157227 76.91396484 -43.76314453 75.82792969 -43.12597656 74.70898438 C-35.25676888 60.89772191 -27.34619583 47.11086567 -19.39233398 33.34814453 C-14.79159493 25.38435688 -10.22152803 17.40346941 -5.67871094 9.40649414 C-5.22141602 8.60332764 -4.76412109 7.80016113 -4.29296875 6.97265625 C-3.8961792 6.27406494 -3.49938965 5.57547363 -3.09057617 4.85571289 C-2.11847716 3.20159949 -1.06425382 1.59638073 0 0 Z " fill="#405467" transform="translate(514,325)"/>
<path d="M0 0 C2.70715008 2.41548749 4.21429696 4.97261957 5.8984375 8.171875 C6.45321777 9.21641846 7.00799805 10.26096191 7.57958984 11.3371582 C8.1720752 12.463396 8.76456055 13.58963379 9.375 14.75 C10.64207648 17.13612459 11.91420145 19.51953453 13.1875 21.90234375 C13.66973526 22.80577766 13.66973526 22.80577766 14.16171265 23.72746277 C17.14695469 29.30539972 20.24277115 34.81614912 23.375 40.3125 C28.31044979 48.98786999 33.18042757 57.69737093 38 66.4375 C38.33797607 67.05038879 38.67595215 67.66327759 39.02416992 68.29473877 C44.22546629 77.73289597 49.37082831 87.20060444 54.49267578 96.68212891 C58.78009899 104.61286166 63.14019923 112.50055534 67.53515625 120.37207031 C69.29818312 123.53494052 71.0556288 126.70089579 72.8125 129.8671875 C73.48974383 131.08748498 74.16698994 132.3077812 74.84423828 133.52807617 C75.84974289 135.33989073 76.85516889 137.15174859 77.86029053 138.96377563 C81.20650641 144.99554969 84.55722337 151.02271696 88 157 C92.34750022 155.5587522 95.23000036 153.34665726 98.6875 150.375 C103.78706625 146 103.78706625 146 106 146 C106.27336182 146.65629395 106.54672363 147.31258789 106.82836914 147.98876953 C114.5075227 166.40444551 122.29794747 184.77173357 130.125 203.125 C138.19203508 222.04135029 146.22522835 240.97138982 154.21289062 259.92138672 C157.91431106 268.70102547 161.62315535 277.47729205 165.359375 286.2421875 C165.71437576 287.07503769 166.06937653 287.90788788 166.43513489 288.76597595 C166.78823227 289.59432449 167.14132965 290.42267303 167.50512695 291.27612305 C174.13983709 306.84121505 180.70690265 322.43255165 187.1875 338.0625 C187.54007874 338.91227417 187.89265747 339.76204834 188.25592041 340.63757324 C190.515617 346.08695273 192.76432924 351.5407196 195 357 C195.45466644 358.10876495 195.45466644 358.10876495 195.91851807 359.2399292 C196.77938368 361.34444244 197.63489219 363.45103935 198.48828125 365.55859375 C199.21785034 367.35574829 199.21785034 367.35574829 199.9621582 369.18920898 C201 372 201 372 201 374 C172.62 374 144.24 374 115 374 C114.34 371.36 113.68 368.72 113 366 C138.41 366 163.82 366 190 366 C181.26261855 344.47001162 181.26261855 344.47001162 172.125 323.125 C168.61952832 315.16501432 165.26036639 307.19277635 162.17919922 299.05859375 C160.4080863 294.46470086 158.46386621 289.9516165 156.5 285.4375 C154.16195703 280.03852091 151.84128374 274.63499849 149.58984375 269.19921875 C147.33689469 263.77418333 145.00262109 258.38779672 142.64941406 253.00561523 C136.88568256 239.81908429 131.30705911 226.56644381 125.85372925 213.24868774 C122.33687432 204.66036747 118.79846448 196.08545738 115.125 187.5625 C114.77671143 186.75441895 114.42842285 185.94633789 114.06958008 185.11376953 C113.39221212 183.5438223 112.71456509 181.97399544 112.03662109 180.40429688 C110.15743251 176.04578318 108.29309565 171.68110469 106.4375 167.3125 C106.09025879 166.50304932 105.74301758 165.69359863 105.38525391 164.85961914 C103 159.22936742 103 159.22936742 103 157 C101.2267539 158.26746453 99.45649025 159.53910235 97.6875 160.8125 C96.70136719 161.52019531 95.71523438 162.22789062 94.69921875 162.95703125 C92.04684045 164.80954874 92.04684045 164.80954874 90.45703125 166.82421875 C89 168 89 168 86.58154297 167.85449219 C84 167 84 167 82.48950195 165.06079102 C82.07659912 164.21701904 81.66369629 163.37324707 81.23828125 162.50390625 C80.76455078 161.56216553 80.29082031 160.6204248 79.80273438 159.65014648 C79.31095703 158.63122314 78.81917969 157.6122998 78.3125 156.5625 C77.2480987 154.43909796 76.18166975 152.31671118 75.11328125 150.1953125 C74.3236499 148.61218262 74.3236499 148.61218262 73.51806641 146.99707031 C71.45083934 142.91580955 69.24772651 138.92142038 67 134.9375 C66.1844379 133.48332965 65.36934051 132.02889858 64.5546875 130.57421875 C64.14186523 129.8373584 63.72904297 129.10049805 63.30371094 128.34130859 C60.88247313 123.99305568 58.50507499 119.62087822 56.125 115.25 C55.61936523 114.321875 55.11373047 113.39375 54.59277344 112.4375 C52.57942295 108.74060501 50.56742931 105.04297267 48.55566406 101.34521484 C36.98526587 80.08252358 25.37122452 58.84407899 13.39550781 37.80639648 C9.60851088 31.13592678 5.99031664 24.39440715 2.48828125 17.5703125 C1.25601169 14.89886395 1.25601169 14.89886395 -1 14 C-1.26466064 14.87043945 -1.52932129 15.74087891 -1.80200195 16.63769531 C-2.98438717 19.95618098 -4.40697133 22.75101566 -6.16796875 25.796875 C-7.12533936 27.46206177 -7.12533936 27.46206177 -8.10205078 29.16088867 C-8.7971299 30.35730015 -9.49228154 31.55366949 -10.1875 32.75 C-10.90920003 34.00141579 -11.63038328 35.25312975 -12.35107422 36.50512695 C-14.20320682 39.71975055 -16.06152166 42.93074709 -17.92218018 46.14044189 C-20.8277664 51.15343785 -23.72624938 56.17054935 -26.625 61.1875 C-27.23923828 62.25033203 -27.85347656 63.31316406 -28.48632812 64.40820312 C-37.77303264 80.50581001 -46.79634243 96.74482504 -55.6550293 113.08129883 C-60.22502648 121.47744749 -65.00319439 129.7463425 -69.83203125 137.99560547 C-71.57447928 140.98588522 -73.28803834 143.99217847 -75 147 C-75.69738281 146.29359375 -76.39476562 145.5871875 -77.11328125 144.859375 C-80.06502117 141.90867553 -83.11201427 139.07077925 -86.1875 136.25 C-86.72052734 135.75628906 -87.25355469 135.26257813 -87.80273438 134.75390625 C-90.68080594 132.070738 -90.68080594 132.070738 -94 130 C-94.39022339 131.25913208 -94.39022339 131.25913208 -94.78833008 132.54370117 C-96.08991625 136.25648687 -97.68231871 139.7622406 -99.38671875 143.30078125 C-99.72029892 144.00130112 -100.05387909 144.70182098 -100.39756775 145.42356873 C-101.11626551 146.93279782 -101.83634709 148.44136857 -102.55767822 149.94934082 C-108.71282389 162.82357398 -114.75436925 175.74363984 -120.625 188.75 C-125.61167485 199.79707855 -130.7002812 210.78977004 -135.875 221.75 C-140.38893009 231.31249703 -144.81670723 240.89544661 -148.86083984 250.66894531 C-151.01557394 255.84627656 -153.35613749 260.91832836 -155.7578125 265.984375 C-159.96575936 274.86297591 -163.96819894 283.82522011 -167.9375 292.8125 C-169.34549813 295.99256697 -170.75480979 299.17205134 -172.1640625 302.3515625 C-172.50268814 303.11605209 -172.84131378 303.88054169 -173.19020081 304.66819763 C-175.7086506 310.35144153 -178.25080562 316.02360872 -180.8125 321.6875 C-184.63892485 330.15315537 -188.38175127 338.65489235 -192.10864258 347.16479492 C-192.75869263 348.64749878 -192.75869263 348.64749878 -193.421875 350.16015625 C-193.79924805 351.02261963 -194.17662109 351.88508301 -194.56542969 352.77368164 C-196.68002395 357.52935952 -198.84631643 362.26189615 -201 367 C-172.62 367 -144.24 367 -115 367 C-116 373 -116 373 -117 374 C-119.95246354 374.09526806 -122.88148421 374.12552452 -125.83422852 374.11352539 C-126.76096375 374.11367142 -127.68769897 374.11381744 -128.64251709 374.1139679 C-131.72133687 374.11326838 -134.80009697 374.10547421 -137.87890625 374.09765625 C-140.00740018 374.09579221 -142.13589453 374.09436824 -144.26438904 374.09336853 C-149.8786232 374.08954228 -155.49283168 374.07971108 -161.10705566 374.06866455 C-166.83113253 374.05845273 -172.55521353 374.0538714 -178.27929688 374.04882812 C-189.51954256 374.03808891 -200.75976915 374.0210112 -212 374 C-211.34684781 370.5341829 -210.52076447 367.6201922 -209.0234375 364.421875 C-208.60835938 363.52678223 -208.19328125 362.63168945 -207.765625 361.70947266 C-207.30671875 360.73284668 -206.8478125 359.7562207 -206.375 358.75 C-205.36131396 356.56541271 -204.34833042 354.38049935 -203.3359375 352.1953125 C-202.79291992 351.02645508 -202.24990234 349.85759766 -201.69042969 348.65332031 C-198.75768186 342.32699462 -195.88198349 335.9745622 -193 329.625 C-192.37021751 328.23835403 -191.74041576 326.8517168 -191.1105957 325.46508789 C-189.43197979 321.7686807 -187.75446363 318.07177546 -186.07733154 314.37469482 C-184.96212396 311.9165122 -183.84654278 309.45849931 -182.73095703 307.00048828 C-180.33950381 301.73038306 -177.95033683 296.45924469 -175.5625 291.1875 C-175.16009094 290.29925537 -174.75768188 289.41101074 -174.34307861 288.49584961 C-170.13774537 279.2092211 -165.94850335 269.91625305 -161.83203125 260.58984375 C-161.50136658 259.84075745 -161.1707019 259.09167114 -160.83001709 258.31988525 C-160.17123822 256.82721216 -159.51246538 255.3345364 -158.85369873 253.84185791 C-152.54707313 239.55667247 -146.00227416 225.40247615 -139.29125977 211.30297852 C-134.52024655 201.27145807 -129.87682314 191.18959664 -125.3125 181.0625 C-119.97406272 169.21893891 -114.43241905 157.4913336 -108.73266602 145.81762695 C-105.00299041 138.15788333 -101.48477155 130.45279706 -98.234375 122.578125 C-97 120 -97 120 -95 119 C-94.55011719 119.40089844 -94.10023438 119.80179687 -93.63671875 120.21484375 C-87.88337427 125.29946282 -81.964003 130.16521081 -76 135 C-75.60518433 133.9488501 -75.60518433 133.9488501 -75.20239258 132.87646484 C-73.9070449 129.77762499 -72.38857113 126.91502628 -70.76171875 123.9765625 C-70.44495682 123.40279373 -70.12819489 122.82902496 -69.80183411 122.23786926 C-68.76676837 120.36520824 -67.72731756 118.4950261 -66.6875 116.625 C-65.95951758 115.31134459 -65.23165439 113.9976231 -64.50390625 112.68383789 C-58.07143815 101.08357496 -51.5651998 89.52565631 -45 78 C-44.38157227 76.91396484 -43.76314453 75.82792969 -43.12597656 74.70898438 C-35.25676888 60.89772191 -27.34619583 47.11086567 -19.39233398 33.34814453 C-14.79159493 25.38435688 -10.22152803 17.40346941 -5.67871094 9.40649414 C-5.22141602 8.60332764 -4.76412109 7.80016113 -4.29296875 6.97265625 C-3.8961792 6.27406494 -3.49938965 5.57547363 -3.09057617 4.85571289 C-2.11847716 3.20159949 -1.06425382 1.59638073 0 0 Z " fill="#29415D" transform="translate(514,325)"/>
<path d="M0 0 C3.84458185 1.28152728 4.05919723 2.44320524 5.8984375 5.9765625 C6.45321777 7.02755127 7.00799805 8.07854004 7.57958984 9.16137695 C8.1720752 10.30437256 8.76456055 11.44736816 9.375 12.625 C10.64112423 15.02984206 11.9144678 17.4308405 13.1875 19.83203125 C13.50899017 20.440504 13.83048035 21.04897675 14.16171265 21.67588806 C17.12986922 27.28127699 20.23113154 32.8043242 23.375 38.3125 C28.14652837 46.70211491 32.87373123 55.11493161 37.5491333 63.55844116 C38.25814425 64.83795513 38.96836168 66.1168014 39.67987061 67.39492798 C40.67795881 69.18853151 41.67156232 70.98454963 42.6640625 72.78125 C43.23592285 73.81314453 43.8077832 74.84503906 44.39697266 75.90820312 C46.11400403 79.21988227 47.5703882 82.55595977 49 86 C43.92408275 84.30802758 39.73685988 81.36831006 35.3125 78.4375 C33.78830148 77.43537449 32.26358641 76.43403407 30.73828125 75.43359375 C29.73341675 74.76928345 29.73341675 74.76928345 28.70825195 74.09155273 C26.98815958 72.95043193 26.98815958 72.95043193 25 72 C23.35 80.91 21.7 89.82 20 99 C16.35833461 97.78611154 15.8844621 96.74407414 13.8203125 93.58984375 C13.22089844 92.68169922 12.62148438 91.77355469 12.00390625 90.83789062 C11.38386719 89.88076172 10.76382813 88.92363281 10.125 87.9375 C9.51269531 87.00744141 8.90039062 86.07738281 8.26953125 85.11914062 C6.49896389 82.42158457 4.74643376 79.71322775 3 77 C2.4853418 76.20867676 1.97068359 75.41735352 1.44042969 74.60205078 C0.98313477 73.88903809 0.52583984 73.17602539 0.0546875 72.44140625 C-0.34508301 71.82080322 -0.74485352 71.2002002 -1.15673828 70.56079102 C-2 69 -2 69 -2 67 C-2.66 67 -3.32 67 -4 67 C-4.26804443 67.73968018 -4.53608887 68.47936035 -4.81225586 69.24145508 C-5.96511487 71.91897901 -7.21323098 73.85238456 -9.00390625 76.13671875 C-9.57947266 76.87857422 -10.15503906 77.62042969 -10.74804688 78.38476562 C-11.34681641 79.14466797 -11.94558594 79.90457031 -12.5625 80.6875 C-13.75266994 82.21117211 -14.94153722 83.73586293 -16.12890625 85.26171875 C-16.91890015 86.26658325 -16.91890015 86.26658325 -17.72485352 87.29174805 C-19.06404297 88.98087438 -19.06404297 88.98087438 -20 91 C-20.66 91 -21.32 91 -22 91 C-22.67055285 88.06333774 -23.33659053 85.12577641 -24 82.1875 C-24.19078125 81.35412109 -24.3815625 80.52074219 -24.578125 79.66210938 C-24.75859375 78.85966797 -24.9390625 78.05722656 -25.125 77.23046875 C-25.29257812 76.49207764 -25.46015625 75.75368652 -25.6328125 74.99291992 C-26 73 -26 73 -26 70 C-33.17026999 75.4682362 -40.10035518 81.19776061 -47 87 C-47.33 86.34 -47.66 85.68 -48 85 C-46.97460938 82.70703125 -46.97460938 82.70703125 -45.34375 79.8125 C-44.74111328 78.73476318 -44.13847656 77.65702637 -43.51757812 76.54663086 C-42.84532568 75.36426497 -42.17279186 74.18205903 -41.5 73 C-40.81131444 71.77707494 -40.12317087 70.55384453 -39.43554688 69.33032227 C-32.39353344 56.82793552 -25.20222756 44.41052534 -18 32 C-15.57911024 27.8249616 -13.16089821 23.64838295 -10.74536133 19.47024536 C-9.77639777 17.79562227 -8.80522174 16.12227997 -7.83398438 14.44897461 C-6.94936523 12.9196228 -6.94936523 12.9196228 -6.046875 11.359375 C-5.27102051 10.02084473 -5.27102051 10.02084473 -4.47949219 8.65527344 C-2.89503955 5.81162543 -1.43548556 2.92128269 0 0 Z " fill="#F9FAFA" transform="translate(513,339)"/>
<path d="M0 0 C2.79418097 1.28548242 4.94600646 2.6613659 7.19921875 4.75 C7.76833984 5.2759375 8.33746094 5.801875 8.92382812 6.34375 C9.7968457 7.16359375 9.7968457 7.16359375 10.6875 8 C11.28111328 8.5465625 11.87472656 9.093125 12.48632812 9.65625 C16.86533849 13.73067697 16.86533849 13.73067697 18 16 C16.78515625 18.8203125 16.78515625 18.8203125 15.0625 22.125 C14.49660156 23.22070312 13.93070312 24.31640625 13.34765625 25.4453125 C12.90292969 26.28835938 12.45820313 27.13140625 12 28 C8.67240077 26.44805246 6.51419515 24.69378051 4 22 C-0.01815893 23.56783304 -2.46091345 26.40600352 -5.25 29.5625 C-5.72800049 30.09391602 -6.20600098 30.62533203 -6.69848633 31.17285156 C-8.13842153 32.77657428 -9.56986943 34.38753404 -11 36 C-11.82371094 36.92167969 -12.64742188 37.84335937 -13.49609375 38.79296875 C-15.33676634 40.85675317 -17.17158858 42.92535552 -19 45 C-19.66 44.67 -20.32 44.34 -21 44 C-20.61255615 43.20005615 -20.2251123 42.4001123 -19.82592773 41.57592773 C-9.7727425 20.85452766 -9.7727425 20.85452766 0 0 Z " fill="#F4F5F4" transform="translate(420,455)"/>
<path d="M0 0 C1.83706934 4.19749205 3.67003892 8.39674135 5.49926758 12.59765625 C6.12184688 14.02587876 6.74553468 15.45361861 7.37036133 16.88085938 C8.26937537 18.93493123 9.16436085 20.99071799 10.05859375 23.046875 C10.3377916 23.68244324 10.61698944 24.31801147 10.90464783 24.97283936 C12.19341773 27.94629064 13.35704787 30.81651808 14 34 C10.0584175 30.75914328 6.54347273 27.49317462 3.12939453 23.69189453 C-0.89835412 19.29915344 -3.95088784 16.34225084 -10.1875 15.8125 C-11.79284449 15.82372619 -13.40014033 15.86693624 -15 16 C-15.33 14.35 -15.66 12.7 -16 11 C-13.71287089 9.16074213 -11.42071465 7.32848506 -9.125 5.5 C-8.47402344 4.97535156 -7.82304688 4.45070313 -7.15234375 3.91015625 C-6.52714844 3.41386719 -5.90195312 2.91757812 -5.2578125 2.40625 C-4.6817627 1.94541016 -4.10571289 1.48457031 -3.51220703 1.00976562 C-2 0 -2 0 0 0 Z " fill="#EEF0EF" transform="translate(617,482)"/>
<path d="M0 0 C0.66 0 1.32 0 2 0 C0.88375527 3.43459917 -0.27829981 6.85156495 -1.5 10.25 C-1.7371875 10.91515625 -1.974375 11.5803125 -2.21875 12.265625 C-3 14 -3 14 -5 16 C-6.39211215 11.82366356 -4.9535579 10.21039485 -3.0625 6.3125 C-2.49660156 5.13300781 -1.93070312 3.95351563 -1.34765625 2.73828125 C-0.90292969 1.83464844 -0.45820313 0.93101562 0 0 Z " fill="#2F4C64" transform="translate(318,661)"/>
<path d="M0 0 C0.66 0.33 1.32 0.66 2 1 C0.7260411 3.03833424 -0.61061923 5.03852126 -2 7 C-2.66 7 -3.32 7 -4 7 C-4 5.35 -4 3.7 -4 2 C-2.125 0.9375 -2.125 0.9375 0 0 Z " fill="#EDF1F1" transform="translate(495,423)"/>
<path d="M0 0 C0.99 0.99 1.98 1.98 3 3 C2.67 3.66 2.34 4.32 2 5 C1.01 5.33 0.02 5.66 -1 6 C-1.33 6.66 -1.66 7.32 -2 8 C-2.66 7.67 -3.32 7.34 -4 7 C-2.68 4.69 -1.36 2.38 0 0 Z " fill="#344D68" transform="translate(514,325)"/>
<path d="M0 0 C0.66 0.33 1.32 0.66 2 1 C0.38405168 3.04119788 -1.2856382 5.04072937 -3 7 C-3.66 7 -4.32 7 -5 7 C-3.70700306 4.11562221 -2.34058637 2.12780579 0 0 Z " fill="#576B7A" transform="translate(422,476)"/>
<path d="M0 0 C0.95465783 2.16967689 1.14401212 3.56328793 0.3984375 5.82421875 C-0.35870385 7.5684743 -1.17609198 9.28627131 -2 11 C-2.66 11 -3.32 11 -4 11 C-2.7874262 7.27566618 -1.49140021 3.62197194 0 0 Z " fill="#324C65" transform="translate(377,531)"/>
</g>
</svg>
