<?xml version="1.0" standalone="no"?>
<!DOCTYPE svg PUBLIC "-//W3C//DTD SVG 20010904//EN"
 "http://www.w3.org/TR/2001/REC-SVG-20010904/DTD/svg10.dtd">
<svg version="1.0" xmlns="http://www.w3.org/2000/svg"
 width="128.000000pt" height="128.000000pt" viewBox="0 0 128.000000 128.000000"
 preserveAspectRatio="xMidYMid meet">

<g transform="translate(0.000000,128.000000) scale(0.100000,-0.100000)"
fill="#cbd5e1" stroke="none">
<path d="M206 1184 c-8 -20 -8 -1008 0 -1028 5 -14 33 -16 210 -16 197 0 204
1 204 20 0 19 -7 20 -185 20 l-185 0 0 490 0 490 340 0 340 0 2 -307 c3 -266
5 -308 18 -308 13 0 15 44 18 328 l2 327 -379 0 c-336 0 -380 -2 -385 -16z"/>
<path d="M360 1010 c0 -19 7 -20 225 -20 218 0 225 1 225 20 0 19 -7 20 -225
20 -218 0 -225 -1 -225 -20z"/>
<path d="M357 886 c-3 -8 -3 -17 0 -20 4 -3 107 -6 230 -6 208 0 224 1 221 18
-3 15 -23 17 -224 20 -184 2 -223 0 -227 -12z"/>
<path d="M356 752 c-2 -4 -1 -13 3 -20 6 -9 62 -12 227 -10 199 3 219 5 222
21 3 16 -13 17 -222 17 -124 0 -227 -4 -230 -8z"/>
<path d="M357 616 c-3 -8 -3 -17 0 -20 4 -3 107 -6 230 -6 208 0 224 1 221 18
-3 15 -23 17 -224 20 -184 2 -223 0 -227 -12z"/>
<path d="M775 482 c-141 -68 -167 -248 -50 -350 47 -42 74 -52 136 -52 124 0
210 85 210 207 0 72 -33 138 -89 177 -55 39 -146 47 -207 18z m161 -41 c112
-51 127 -212 28 -288 -36 -27 -104 -40 -149 -29 -38 10 -102 72 -115 112 -17
52 -5 114 32 158 54 66 126 82 204 47z"/>
<path d="M853 393 c-8 -3 -13 -21 -13 -43 0 -39 0 -39 -42 -42 -59 -4 -60 -32
-1 -36 41 -3 42 -4 45 -45 2 -30 8 -43 20 -45 13 -3 17 6 20 40 3 42 4 43 43
48 57 7 55 34 -2 38 -43 3 -43 3 -43 42 0 40 -6 50 -27 43z"/>
<path d="M356 481 c-15 -24 26 -31 160 -29 123 3 139 5 142 21 3 16 -9 17
-147 17 -82 0 -152 -4 -155 -9z"/>
<path d="M356 345 c-8 -23 9 -26 130 -23 89 2 109 6 109 18 0 23 -230 28 -239
5z"/>
</g>
</svg>
